<svg width="80" height="80" viewBox="0 0 80 80" fill="none" xmlns="http://www.w3.org/2000/svg">
<path d="M40.0004 7.5C38.4379 7.5 36.8854 8.025 35.5479 8.985L31.4079 11.875L26.6379 12.5H26.5604L26.4829 12.5775C24.9184 12.9308 23.4862 13.7202 22.3521 14.8543C21.2181 15.9883 20.4286 17.4206 20.0754 18.985L20.0004 19.0625V19.14L19.3754 23.985L16.4854 27.735L16.4054 27.8125V27.89C14.6579 30.6825 14.5804 34.2875 16.4854 36.9525L19.4529 41.0925L20.2354 45.3925L12.1879 57.655L9.61035 61.485H21.5629L24.4529 68.2025L26.2504 72.5L28.8279 68.5925L36.7179 56.7175C38.8379 57.5875 41.2304 57.6675 43.2829 56.7175L51.1729 68.5925L53.7504 72.5L55.5479 68.2025L58.4379 61.485H70.3904L67.8129 57.655L60.0004 45.7825L60.6254 41.095L63.5154 36.955L63.5954 36.8775V36.8C65.3428 34.0075 65.4204 30.48 63.5154 27.815L60.6254 23.6725L59.6879 18.985H59.7654C59.7554 18.925 59.6979 18.885 59.6879 18.8275C59.2379 15.5575 56.6504 12.9025 53.3604 12.5H53.2804L48.5929 11.875L44.4529 8.985C43.1599 8.0378 41.6031 7.51857 40.0004 7.5ZM40.0004 12.5775C40.5754 12.5775 41.1429 12.7525 41.5629 13.0475L46.0154 16.25L46.5629 16.64L47.1879 16.72L52.6579 17.5H52.7329C53.8579 17.625 54.6379 18.4075 54.7654 19.5325V19.6875L55.7829 25.235L55.8579 25.7825L56.2504 26.25L59.4529 30.7025C60.0504 31.5325 60.1279 32.94 59.3754 34.14L55.8604 39.0625L55.7804 39.6875L55.0004 45.1575V45.2325C54.9587 45.6232 54.8251 45.9985 54.6104 46.3275L54.4529 46.4075V46.4825C54.0813 46.9288 53.5484 47.21 52.9704 47.265H52.8129L47.1104 48.2825L46.4854 48.3575L46.0154 48.75L41.5629 51.9525C40.7329 52.55 39.2479 52.6275 38.0479 51.875L33.9854 48.75L33.5154 48.36L32.8129 48.28L27.3429 47.5H27.2679C26.9144 47.4688 26.5735 47.353 26.2742 47.1624C25.9748 46.9719 25.7257 46.7121 25.5479 46.405C25.3817 46.1167 25.2754 45.7978 25.2354 45.4675V45.3125L24.2204 39.61L24.1404 38.985L23.7504 38.515L20.5479 34.0625C19.9504 33.2325 19.8729 31.7475 20.6254 30.5475L23.7504 26.485L24.1404 26.015L24.2179 25.3125L24.9229 20.0775C24.9329 20.04 24.9904 20.04 25.0004 20C25.1562 19.3982 25.4702 18.849 25.9098 18.4094C26.3494 17.9699 26.8985 17.6559 27.5004 17.5C27.5404 17.49 27.5404 17.4325 27.5779 17.4225L32.8129 16.7175L33.4379 16.6425L33.9854 16.25L38.4379 13.0475C38.8579 12.755 39.4254 12.5775 40.0004 12.5775ZM57.2654 50.625L61.0954 56.485H55.0754L54.4504 58.0475L52.7329 62.03L47.4204 53.905L48.5904 53.0475L53.5154 52.1875V52.265C53.5729 52.255 53.6104 52.1975 53.6704 52.1875C54.9861 51.9977 56.2268 51.458 57.2629 50.625H57.2654ZM22.7354 50.7025C23.8209 51.6894 25.1847 52.3172 26.6404 52.5H26.7179L31.4854 53.125L32.5779 53.985L27.2654 62.03L25.5479 58.0475L24.9229 56.485H18.9079L22.7354 50.7025Z" fill="#D6FA52"/>
</svg>
