<svg width="72" height="72" viewBox="0 0 72 72" fill="none" xmlns="http://www.w3.org/2000/svg">
<mask id="mask0_329_839" style="mask-type:alpha" maskUnits="userSpaceOnUse" x="0" y="0" width="72" height="72">
<path d="M35.9994 6.75C34.5932 6.75 33.1959 7.2225 31.9922 8.0865L28.2662 10.6875L23.9732 11.25H23.9034L23.8337 11.3198C22.4257 11.6377 21.1367 12.3482 20.116 13.3689C19.0954 14.3895 18.3849 15.6785 18.0669 17.0865L17.9994 17.1562V17.226L17.4369 21.5865L14.8359 24.9615L14.7639 25.0312V25.101C13.1912 27.6143 13.1214 30.8587 14.8359 33.2572L17.5067 36.9832L18.2109 40.8532L10.9682 51.8895L8.64844 55.3365H19.4057L22.0067 61.3823L23.6244 65.25L25.9442 61.7332L33.0452 51.0457C34.9532 51.8288 37.1064 51.9007 38.9537 51.0457L46.0547 61.7332L48.3744 65.25L49.9922 61.3823L52.5932 55.3365H63.3504L61.0307 51.8895L53.9994 41.2043L54.5619 36.9855L57.1629 33.2595L57.2349 33.1898V33.12C58.8077 30.6068 58.8774 27.432 57.1629 25.0335L54.5619 21.3053L53.7182 17.0865H53.7879C53.7789 17.0325 53.7272 16.9965 53.7182 16.9447C53.3132 14.0018 50.9844 11.6122 48.0234 11.25H47.9514L43.7327 10.6875L40.0067 8.0865C38.843 7.23402 37.4419 6.76671 35.9994 6.75ZM35.9994 11.3198C36.5169 11.3198 37.0277 11.4772 37.4057 11.7427L41.4129 14.625L41.9057 14.976L42.4682 15.048L47.3912 15.75H47.4587C48.4712 15.8625 49.1732 16.5668 49.2879 17.5793V17.7188L50.2037 22.7115L50.2712 23.2043L50.6244 23.625L53.5067 27.6322C54.0444 28.3792 54.1142 29.646 53.4369 30.726L50.2734 35.1562L50.2014 35.7188L49.4994 40.6418V40.7093C49.462 41.0609 49.3417 41.3986 49.1484 41.6948L49.0067 41.7668V41.8343C48.6723 42.2359 48.1927 42.489 47.6724 42.5385H47.5307L42.3984 43.4543L41.8359 43.5218L41.4129 43.875L37.4057 46.7573C36.6587 47.295 35.3222 47.3647 34.2422 46.6875L30.5859 43.875L30.1629 43.524L29.5307 43.452L24.6077 42.75H24.5402C24.222 42.7219 23.9153 42.6177 23.6459 42.4462C23.3765 42.2747 23.1523 42.0409 22.9922 41.7645C22.8427 41.505 22.747 41.218 22.7109 40.9207V40.7812L21.7974 35.649L21.7254 35.0865L21.3744 34.6635L18.4922 30.6562C17.9544 29.9093 17.8847 28.5728 18.5619 27.4928L21.3744 23.8365L21.7254 23.4135L21.7952 22.7812L22.4297 18.0697C22.4387 18.036 22.4904 18.036 22.4994 18C22.6397 17.4584 22.9223 16.9641 23.3179 16.5685C23.7136 16.1729 24.2078 15.8903 24.7494 15.75C24.7854 15.741 24.7854 15.6892 24.8192 15.6803L29.5307 15.0457L30.0932 14.9783L30.5859 14.625L34.5932 11.7427C34.9712 11.4795 35.4819 11.3198 35.9994 11.3198ZM51.5379 45.5625L54.9849 50.8365H49.5669L49.0044 52.2427L47.4587 55.827L42.6774 48.5145L43.7304 47.7427L48.1629 46.9688V47.0385C48.2147 47.0295 48.2484 46.9777 48.3024 46.9688C49.4866 46.7979 50.6033 46.3122 51.5357 45.5625H51.5379ZM20.4609 45.6323C21.4379 46.5205 22.6653 47.0854 23.9754 47.25H24.0452L28.3359 47.8125L29.3192 48.5865L24.5379 55.827L22.9922 52.2427L22.4297 50.8365H17.0162L20.4609 45.6323Z" fill="#D6FA52"/>
</mask>
<g mask="url(#mask0_329_839)">
<rect x="3.59961" y="3.6001" width="64.8" height="64.8" fill="url(#paint0_linear_329_839)"/>
</g>
<defs>
<linearGradient id="paint0_linear_329_839" x1="29.6996" y1="28.8001" x2="64.7996" y2="72.0001" gradientUnits="userSpaceOnUse">
<stop stop-color="#5F2DEE"/>
<stop offset="1" stop-color="#256AD7"/>
</linearGradient>
</defs>
</svg>
