<svg fill="none" height="80" viewBox="0 0 80 80" width="80" xmlns="http://www.w3.org/2000/svg"><g fill="#d6fa52"><path d="m55 67.9501-6.475-6.475-3.525 3.525 10 10 20-20-3.525-3.525z"/><path d="m62.5 12.5h-7.5v-2.5c-.004-1.32487-.532-2.59434-1.4688-3.53116-.9369-.93683-2.2063-1.46488-3.5312-1.46884h-20c-1.3249.00396-2.5943.53201-3.5312 1.46884-.9368.93682-1.4648 2.20629-1.4688 3.53116v2.5h-7.5c-1.3249.004-2.5943.532-3.5312 1.4688-.9368.9369-1.4648 2.2063-1.4688 3.5312v52.5c.004 1.3249.532 2.5943 1.4688 3.5312.9369.9368 2.2063 1.4648 3.5312 1.4688h22.5v-5h-22.5v-52.5h7.5v7.5h30v-7.5h7.5v27.5h5v-27.5c-.004-1.3249-.532-2.5943-1.4688-3.5312-.9369-.9368-2.2063-1.4648-3.5312-1.4688zm-12.5 7.5h-20v-10h20z"/></g></svg>