<svg width="72" height="72" viewBox="0 0 72 72" fill="none" xmlns="http://www.w3.org/2000/svg">
<mask id="mask0_329_822" style="mask-type:alpha" maskUnits="userSpaceOnUse" x="0" y="0" width="72" height="72">
<path d="M57.9517 49.2117C56.1918 47.4503 54.1354 46.0127 51.8767 44.9648C55.0619 42.3843 57.0939 38.4468 57.0939 34.0312C57.0939 26.2406 50.597 19.8492 42.8064 19.9687C35.1353 20.0882 28.9549 26.339 28.9549 34.0312C28.9549 38.4468 30.9939 42.3843 34.172 44.9648C31.913 46.012 29.8564 47.4496 28.097 49.2117C24.258 53.0578 22.0783 58.1343 21.9377 63.5484C21.9358 63.6234 21.949 63.6981 21.9764 63.768C22.0038 63.8378 22.045 63.9015 22.0974 63.9552C22.1498 64.009 22.2124 64.0517 22.2816 64.0808C22.3508 64.11 22.4251 64.125 22.5002 64.1249H26.4377C26.74 64.1249 26.9931 63.8859 27.0002 63.5835C27.1338 59.5054 28.7861 55.6874 31.69 52.7906C33.176 51.2967 34.9435 50.1124 36.8903 49.3061C38.837 48.4999 40.9243 48.0878 43.0314 48.0937C47.3135 48.0937 51.3424 49.7601 54.3728 52.7906C57.2697 55.6874 58.922 59.5054 59.0627 63.5835C59.0697 63.8859 59.3228 64.1249 59.6252 64.1249H63.5627C63.6377 64.125 63.7121 64.11 63.7812 64.0808C63.8504 64.0517 63.9131 64.009 63.9655 63.9552C64.0179 63.9015 64.059 63.8378 64.0865 63.768C64.1139 63.6981 64.127 63.6234 64.1252 63.5484C63.9845 58.1343 61.8049 53.0578 57.9517 49.2117ZM43.0314 43.0312C40.6267 43.0312 38.3627 42.096 36.6681 40.3945C35.8177 39.5508 35.146 38.5444 34.693 37.4354C34.24 36.3265 34.015 35.1376 34.0314 33.9398C34.0525 31.6335 34.9736 29.4046 36.5838 27.7523C38.2713 26.0226 40.5283 25.0593 42.94 25.0312C45.3236 25.0101 47.6369 25.9382 49.3385 27.6046C51.0822 29.3132 52.0385 31.5984 52.0385 34.0312C52.0385 36.4359 51.1033 38.6929 49.4017 40.3945C48.5669 41.2333 47.5741 41.8982 46.4806 42.3508C45.3872 42.8034 44.2148 43.0346 43.0314 43.0312ZM25.4181 35.8874C25.3549 35.2757 25.3197 34.657 25.3197 34.0312C25.3197 32.9132 25.4252 31.8234 25.622 30.7617C25.6713 30.5085 25.5377 30.2484 25.3056 30.1429C24.3494 29.714 23.4705 29.1234 22.7111 28.3781C21.8163 27.5105 21.1122 26.4659 20.6437 25.3109C20.1752 24.156 19.9525 22.916 19.99 21.6703C20.0533 19.4132 20.9603 17.2687 22.5424 15.6515C24.2791 13.8726 26.6135 12.9023 29.0955 12.9304C31.3385 12.9515 33.5041 13.8163 35.1424 15.3492C35.6978 15.8695 36.176 16.446 36.5767 17.0648C36.7174 17.2828 36.9916 17.3742 37.2306 17.2898C38.4681 16.8609 39.776 16.5585 41.1189 16.4179C41.5127 16.3757 41.7377 15.9538 41.5619 15.6023C39.2767 11.0812 34.608 7.95932 29.208 7.87494C21.4103 7.75541 14.9135 14.1468 14.9135 21.9304C14.9135 26.346 16.9455 30.2835 20.1306 32.864C17.8947 33.8976 15.8346 35.3249 14.0486 37.1109C10.1955 40.957 8.0158 46.0335 7.87518 51.4546C7.8733 51.5297 7.88646 51.6043 7.91389 51.6742C7.94132 51.7441 7.98245 51.8078 8.03487 51.8615C8.08729 51.9152 8.14994 51.9579 8.21912 51.9871C8.2883 52.0162 8.36261 52.0312 8.43768 52.0312H12.3822C12.6846 52.0312 12.9377 51.7921 12.9447 51.4898C13.0783 47.4117 14.7306 43.5937 17.6346 40.6968C19.7017 38.6296 22.233 37.1953 24.9963 36.4992C25.2705 36.4288 25.4533 36.1687 25.4181 35.8874Z" fill="#D6FA52"/>
</mask>
<g mask="url(#mask0_329_822)">
<rect width="72" height="72" fill="url(#paint0_linear_329_822)"/>
</g>
<defs>
<linearGradient id="paint0_linear_329_822" x1="29" y1="28" x2="68" y2="76" gradientUnits="userSpaceOnUse">
<stop stop-color="#5F2DEE"/>
<stop offset="1" stop-color="#256AD7"/>
</linearGradient>
</defs>
</svg>
