<svg width="80" height="80" viewBox="0 0 80 80" fill="none" xmlns="http://www.w3.org/2000/svg">
<path d="M64.3908 54.6796C62.4353 52.7225 60.1504 51.1252 57.6408 49.9608C61.1799 47.0936 63.4377 42.7186 63.4377 37.8124C63.4377 29.1561 56.2189 22.0546 47.5627 22.1874C39.0393 22.3202 32.1721 29.2655 32.1721 37.8124C32.1721 42.7186 34.4377 47.0936 37.9689 49.9608C35.4588 51.1243 33.1738 52.7218 31.2189 54.6796C26.9533 58.953 24.5314 64.5936 24.3752 70.6093C24.3731 70.6926 24.3877 70.7756 24.4182 70.8532C24.4487 70.9309 24.4944 71.0016 24.5526 71.0613C24.6109 71.121 24.6805 71.1685 24.7574 71.2009C24.8342 71.2332 24.9168 71.2499 25.0002 71.2499H29.3752C29.7111 71.2499 29.9924 70.9843 30.0002 70.6483C30.1486 66.1171 31.9846 61.8749 35.2111 58.6561C36.8622 56.9963 38.8261 55.6803 40.9892 54.7845C43.1522 53.8887 45.4715 53.4309 47.8127 53.4374C52.5705 53.4374 57.0471 55.2889 60.4143 58.6561C63.633 61.8749 65.4689 66.1171 65.6252 70.6483C65.633 70.9843 65.9143 71.2499 66.2502 71.2499H70.6252C70.7086 71.2499 70.7912 71.2332 70.868 71.2009C70.9449 71.1685 71.0145 71.121 71.0728 71.0613C71.131 71.0016 71.1767 70.9309 71.2072 70.8532C71.2376 70.7756 71.2523 70.6926 71.2502 70.6093C71.0939 64.5936 68.6721 58.953 64.3908 54.6796ZM47.8127 47.8124C45.1408 47.8124 42.6252 46.7733 40.7424 44.8827C39.7975 43.9452 39.0511 42.8271 38.5477 41.5949C38.0444 40.3627 37.7944 39.0417 37.8127 37.7108C37.8361 35.1483 38.8596 32.6718 40.6486 30.8358C42.5236 28.9139 45.0314 27.8436 47.7111 27.8124C50.3596 27.7889 52.9299 28.8202 54.8205 30.6718C56.758 32.5702 57.8205 35.1093 57.8205 37.8124C57.8205 40.4843 56.7814 42.9921 54.8908 44.8827C53.9633 45.8147 52.8601 46.5535 51.6451 47.0564C50.4302 47.5592 49.1276 47.8162 47.8127 47.8124ZM28.2424 39.8749C28.1721 39.1952 28.133 38.5077 28.133 37.8124C28.133 36.5702 28.2502 35.3593 28.4689 34.1796C28.5236 33.8983 28.3752 33.6093 28.1174 33.4921C27.0549 33.0155 26.0783 32.3593 25.2346 31.5311C24.2403 30.5671 23.458 29.4065 22.9374 28.1232C22.4168 26.8399 22.1695 25.4622 22.2111 24.078C22.2814 21.5702 23.2893 19.1874 25.0471 17.3905C26.9768 15.4139 29.5705 14.3358 32.3283 14.3671C34.8205 14.3905 37.2268 15.3514 39.0471 17.0546C39.6643 17.6327 40.1955 18.2733 40.6408 18.9608C40.7971 19.203 41.1018 19.3046 41.3674 19.2108C42.7424 18.7343 44.1955 18.3983 45.6877 18.2421C46.1252 18.1952 46.3752 17.7264 46.1799 17.3358C43.6408 12.3124 38.4533 8.84363 32.4533 8.74988C23.7893 8.61707 16.5705 15.7186 16.5705 24.3671C16.5705 29.2733 18.8283 33.6483 22.3674 36.5155C19.883 37.6639 17.5939 39.2499 15.6096 41.2343C11.3283 45.5077 8.90645 51.1483 8.7502 57.1718C8.74811 57.2551 8.76274 57.3381 8.79321 57.4157C8.82368 57.4934 8.86939 57.5641 8.92764 57.6238C8.98588 57.6835 9.05549 57.731 9.13235 57.7634C9.20922 57.7957 9.29179 57.8124 9.3752 57.8124H13.758C14.0939 57.8124 14.3752 57.5468 14.383 57.2108C14.5314 52.6796 16.3674 48.4374 19.5939 45.2186C21.8908 42.9218 24.7033 41.328 27.7736 40.5546C28.0783 40.4764 28.2814 40.1874 28.2424 39.8749Z" fill="#D6FA52"/>
</svg>
