<svg width="201" height="40" viewBox="0 0 201 40" fill="none" xmlns="http://www.w3.org/2000/svg">
<g clip-path="url(#clip0_233_81)">
<path d="M34.624 39.7091C33.1865 39.7091 31.8346 39.1478 30.8181 38.1313C29.8015 37.1147 29.2402 35.7628 29.2402 34.3253C29.2402 32.8878 29.7981 31.5359 30.8146 30.5228C31.8311 29.5063 33.1831 28.945 34.624 28.945C36.0615 28.945 37.4134 29.5029 38.4299 30.5194C40.528 32.6174 40.528 36.0332 38.4299 38.1347C37.41 39.1512 36.0581 39.7091 34.624 39.7091Z" fill="url(#paint0_linear_233_81)"/>
<path d="M5.38376 11.0139C3.94626 11.0139 2.59434 10.4526 1.5744 9.43612C0.561307 8.41961 0 7.06768 0 5.63018C0 4.19269 0.557885 2.84076 1.5744 1.82767C2.59091 0.811155 3.94626 0.249847 5.38376 0.249847C6.82125 0.249847 8.17318 0.807732 9.18628 1.82425C10.2028 2.84076 10.7641 4.19269 10.7641 5.63018C10.7641 7.06768 10.2028 8.41961 9.18628 9.43612C8.17318 10.4526 6.82125 11.0139 5.38376 11.0139Z" fill="url(#paint1_linear_233_81)"/>
<path d="M34.3799 10.8565C32.9424 10.8565 31.5905 10.2952 30.574 9.27869C28.4759 7.18063 28.4759 3.76487 30.5705 1.66681C31.5871 0.650297 32.939 0.0889893 34.3799 0.0889893C35.8174 0.0889893 37.1693 0.650297 38.1858 1.66681C40.2839 3.76487 40.2839 7.18063 38.1858 9.28211C37.1693 10.2952 35.8174 10.8565 34.3799 10.8565Z" fill="url(#paint2_linear_233_81)"/>
<path d="M5.52438 39.7091C4.08689 39.7091 2.73496 39.1478 1.71502 38.1313C0.69851 37.1147 0.140625 35.7628 0.140625 34.3253C0.140625 32.8878 0.701932 31.5359 1.71845 30.5194C1.93065 30.3038 2.17023 30.1087 2.47484 29.9033C2.56725 29.8383 2.65282 29.7869 2.73838 29.7356C2.93689 29.6227 3.13541 29.5166 3.32023 29.431C3.41948 29.3865 3.52558 29.3386 3.63511 29.2975C3.83019 29.2256 4.04582 29.1606 4.29225 29.1024C4.34016 29.0887 4.38466 29.0785 4.42915 29.0648C4.45653 29.0579 4.48391 29.0477 4.51129 29.0408L5.70921 28.9587C5.8598 28.9655 6.02409 28.9861 6.19864 29.0066L6.26709 29.0169C6.30816 29.0203 6.36292 29.0271 6.41768 29.0305L6.4656 29.034L6.52036 29.0442H6.56828C6.65727 29.0477 6.74283 29.0477 6.8284 29.0477C8.89223 29.0477 10.9321 28.1681 12.4209 26.6347C13.9029 25.1082 14.7209 23.0547 14.6627 21.0011V20.9395L14.6525 20.8745C14.6422 20.8163 14.6388 20.7581 14.6354 20.6999C14.6319 20.6315 14.6251 20.563 14.6148 20.4946L14.6011 20.3748C14.5909 20.2721 14.5772 20.1694 14.5703 20.0667L14.6627 18.8654C14.6696 18.8346 14.6799 18.8072 14.6867 18.7798L14.7072 18.7045C14.762 18.4752 14.8202 18.2493 14.9092 18.0269C14.9537 17.9002 14.9947 17.8078 15.0427 17.712C15.1385 17.5032 15.2377 17.3115 15.3541 17.1165C15.4054 17.0309 15.4534 16.9453 15.5115 16.8632C15.7306 16.5449 15.9257 16.3053 16.131 16.0999C17.1476 15.0834 18.4995 14.5255 19.9404 14.5255C21.3779 14.5255 22.7298 15.0834 23.7498 16.0999C25.8444 18.198 25.8444 21.6138 23.7463 23.7118C23.5341 23.924 23.2946 24.1191 22.9865 24.3279C22.8975 24.3895 22.812 24.4408 22.7264 24.4888C22.5313 24.6051 22.3362 24.7078 22.1446 24.7968C22.0385 24.8447 21.9358 24.8926 21.8331 24.9303C21.6277 25.0056 21.4087 25.0706 21.1794 25.1254L21.0493 25.163C21.0185 25.1698 20.9911 25.1801 20.9638 25.187L19.7556 25.2725C19.6153 25.2657 19.4647 25.2486 19.3072 25.228L19.2011 25.2143C19.1635 25.2075 19.1087 25.2041 19.0505 25.2007L19.0095 25.1972L18.9478 25.187H18.8999C18.8109 25.1835 18.7254 25.1835 18.6364 25.1835C16.5726 25.1835 14.5327 26.0631 13.0439 27.5931C11.5584 29.1195 10.7439 31.1731 10.802 33.2301V33.2917L10.8123 33.3533C10.8226 33.4115 10.826 33.4697 10.8294 33.5279C10.8328 33.5963 10.8397 33.6648 10.85 33.7332C10.8534 33.7743 10.8602 33.8496 10.8705 33.9215C10.8808 34.0036 10.891 34.0823 10.891 34.1679V34.1987L10.8055 35.3521C10.7986 35.3761 10.761 35.5095 10.7507 35.5506C10.6925 35.8005 10.6275 36.0195 10.5522 36.218C10.5111 36.3275 10.4701 36.4234 10.4221 36.5226C10.3297 36.728 10.227 36.9231 10.1107 37.1216C10.0593 37.2037 10.0012 37.2996 9.93955 37.392C9.74104 37.6829 9.54252 37.9259 9.3269 38.1415C8.31381 39.1512 6.96188 39.7091 5.52438 39.7091Z" fill="url(#paint3_linear_233_81)"/>
<path d="M20.0591 39.7091C18.6216 39.7091 17.2662 39.1478 16.2497 38.1313C15.2332 37.1147 14.6753 35.7628 14.6719 34.3253C14.6719 32.8878 15.2298 31.5393 16.2463 30.5228C16.4551 30.314 16.6878 30.1224 17.0095 29.8999C17.0882 29.8451 17.1738 29.7938 17.2662 29.7425C17.4647 29.6227 17.653 29.5234 17.8515 29.4344C17.9576 29.3865 18.0603 29.3386 18.1629 29.3009C18.3614 29.2291 18.5805 29.164 18.8098 29.1127C18.8098 29.1127 18.9981 29.0579 19.022 29.0511L20.2405 28.9621C20.3842 28.9689 20.5382 28.9895 20.7025 29.01L20.7915 29.0203C20.8497 29.0271 20.901 29.0305 20.9524 29.0305C20.9729 29.0305 20.9934 29.0305 21.0105 29.034L21.0482 29.0374L21.0995 29.0408C21.1885 29.0442 21.2775 29.0442 21.3665 29.0442C23.4269 29.0442 25.4634 28.1646 26.9488 26.6347C28.4308 25.1082 29.2488 23.0547 29.1906 21.0011L29.1837 20.7513L29.1598 20.7239C29.1598 20.717 29.1598 20.7068 29.1563 20.6965C29.1529 20.6383 29.1495 20.5801 29.1427 20.5185L29.1221 20.3474C29.1119 20.2516 29.0982 20.1592 29.0947 20.0633L29.1769 18.8996C29.1837 18.8723 29.2248 18.7285 29.2351 18.684C29.3035 18.4068 29.3651 18.2014 29.4336 18.02C29.4712 17.9105 29.5191 17.8112 29.5671 17.7086C29.6526 17.5203 29.7553 17.3287 29.8785 17.1199L29.9025 17.0822C29.9435 17.0104 29.9846 16.9419 30.0325 16.8735C30.2516 16.5517 30.4501 16.3121 30.6554 16.1034C31.672 15.0869 33.0273 14.5255 34.4648 14.5255C35.9023 14.5255 37.2542 15.0834 38.2707 16.0999C40.3688 18.198 40.3688 21.6138 38.2707 23.7152C38.0688 23.9172 37.8258 24.1123 37.5075 24.3313C37.4459 24.3724 37.3877 24.4066 37.3295 24.4443L37.2337 24.5024C37.0523 24.6085 36.8572 24.7112 36.6655 24.8002C36.5594 24.8481 36.4568 24.896 36.3507 24.9337C36.1624 25.0056 35.9536 25.0637 35.6935 25.1288C35.6422 25.1425 35.5977 25.1562 35.5566 25.1664C35.5258 25.1733 35.4984 25.1835 35.4711 25.1904L34.2731 25.2725C34.0986 25.2657 33.9069 25.2383 33.7255 25.2143C33.6639 25.2075 33.616 25.2041 33.5681 25.2007C33.551 25.2007 33.5304 25.2007 33.5133 25.1972L33.4106 25.187C33.3217 25.1835 33.2327 25.1835 33.1437 25.1835C31.0798 25.1835 29.0468 26.0631 27.558 27.5931C26.076 29.1195 25.258 31.1731 25.3196 33.2301V33.2917L25.3299 33.3499C25.3401 33.4115 25.3436 33.4731 25.347 33.5347C25.3504 33.5963 25.3573 33.6613 25.3641 33.7195C25.3675 33.7709 25.3744 33.8359 25.3812 33.8975C25.3915 33.9899 25.4017 34.0789 25.4052 34.1713L25.3162 35.3521C25.3093 35.3795 25.2648 35.5369 25.2648 35.5369C25.2067 35.7868 25.1416 36.0058 25.0663 36.2112C25.0321 36.307 24.9876 36.4028 24.9431 36.4987L24.9294 36.5329C24.8404 36.7246 24.7412 36.9162 24.6282 37.1011C24.5735 37.1935 24.5187 37.2825 24.4605 37.368C24.2483 37.6726 24.0498 37.9191 23.8376 38.1313C22.8416 39.1512 21.4931 39.7091 20.0591 39.7091Z" fill="url(#paint4_linear_233_81)"/>
<path d="M5.52829 25.1801C4.0908 25.1801 2.73887 24.6222 1.72235 23.6057C0.705839 22.5892 0.144531 21.2373 0.144531 19.7964C0.144531 18.3589 0.702416 17.0104 1.71893 15.9938C1.92771 15.7851 2.17071 15.59 2.48217 15.3743C2.56431 15.3196 2.65672 15.2648 2.74571 15.2101C2.93053 15.1005 3.1222 14.9979 3.32413 14.9054C3.42681 14.8575 3.53291 14.8096 3.64243 14.772C3.84095 14.7001 4.05999 14.6351 4.28588 14.5837L4.42279 14.5461C4.44675 14.5392 4.47071 14.529 4.49809 14.5255L5.71653 14.4366C5.87397 14.4434 6.0451 14.4674 6.2265 14.4913L6.26415 14.4947C6.32576 14.5016 6.37367 14.505 6.42501 14.505C6.44213 14.505 6.45924 14.505 6.47635 14.5084L6.52769 14.5187L6.57561 14.5221C6.6646 14.5255 6.75358 14.5255 6.84257 14.5255C8.90298 14.5255 10.9394 13.6494 12.4248 12.116C13.9068 10.5895 14.7248 8.53598 14.6632 6.47899V6.42081L14.653 6.36262C14.6393 6.2976 14.6393 6.23257 14.6358 6.16411C14.6324 6.10935 14.629 6.05459 14.6222 5.99983L14.605 5.83554C14.5914 5.73629 14.5811 5.63703 14.5777 5.53778L14.6598 4.40832L14.6666 4.38094V4.35698C14.6735 4.3296 14.718 4.18242 14.718 4.18242C14.7864 3.8915 14.848 3.68272 14.9165 3.4979C14.9541 3.39523 15.0021 3.29597 15.05 3.18987C15.139 2.9982 15.2416 2.79969 15.358 2.60118L15.3751 2.57038C15.423 2.49166 15.4675 2.41636 15.5189 2.33764C15.7311 2.02961 15.9296 1.7866 16.1315 1.58124C17.148 0.561307 18.5034 0 19.9409 0C21.3784 0 22.7303 0.557885 23.7468 1.5744C25.8449 3.67246 25.8415 7.08822 23.7434 9.18627C23.5346 9.39505 23.2882 9.59699 22.987 9.80234C22.9049 9.86053 22.833 9.9016 22.7611 9.94609L22.72 9.97005C22.5215 10.0864 22.3264 10.1891 22.145 10.2747C22.0355 10.326 21.9363 10.3705 21.8302 10.4081C21.6282 10.4834 21.4126 10.545 21.173 10.6032C21.1217 10.6169 21.0772 10.6306 21.0293 10.6409C21.0019 10.6477 20.9745 10.658 20.9437 10.6648L19.7492 10.747C19.5986 10.7401 19.4378 10.7196 19.2666 10.6991L19.1948 10.6888C19.14 10.682 19.0887 10.6785 19.0407 10.6751C19.0202 10.6751 18.9997 10.6751 18.9826 10.6717L18.9415 10.6683L18.8901 10.6648C18.8012 10.6614 18.7122 10.658 18.6232 10.658C16.5628 10.658 14.5263 11.5376 13.0409 13.0675C11.5589 14.594 10.7409 16.651 10.7991 18.7045V18.7661L10.8128 18.8243C10.8265 18.8859 10.8265 18.9475 10.8333 19.0092C10.8368 19.0708 10.8436 19.1358 10.8504 19.1974C10.8539 19.2487 10.8641 19.3103 10.871 19.3754C10.8812 19.4644 10.8915 19.5533 10.8949 19.6423L10.8094 20.8163C10.8025 20.8471 10.7923 20.8779 10.782 20.9087L10.7512 21.0148C10.693 21.2783 10.628 21.4974 10.5561 21.6891C10.5185 21.7917 10.4671 21.8944 10.4192 22.0039C10.3302 22.1956 10.231 22.3873 10.1146 22.5824C10.0598 22.6748 10.0085 22.7638 9.9503 22.8459C9.72783 23.1676 9.53958 23.4004 9.33081 23.6057C8.31087 24.6188 6.96236 25.1801 5.52829 25.1801Z" fill="url(#paint5_linear_233_81)"/>
</g>
<path d="M63.816 30.336C62.2853 30.336 60.8573 30.084 59.532 29.58C58.2253 29.076 57.0867 28.3667 56.116 27.452C55.164 26.5373 54.4173 25.464 53.876 24.232C53.3533 23 53.092 21.656 53.092 20.2C53.092 18.744 53.3533 17.4 53.876 16.168C54.4173 14.936 55.1733 13.8627 56.144 12.948C57.1147 12.0333 58.2533 11.324 59.56 10.82C60.8667 10.316 62.2853 10.064 63.816 10.064C65.3653 10.064 66.784 10.316 68.072 10.82C69.3787 11.324 70.508 12.0333 71.46 12.948C72.4307 13.844 73.1867 14.908 73.728 16.14C74.2693 17.372 74.54 18.7253 74.54 20.2C74.54 21.656 74.2693 23.0093 73.728 24.26C73.1867 25.492 72.4307 26.5653 71.46 27.48C70.508 28.376 69.3787 29.076 68.072 29.58C66.784 30.084 65.3653 30.336 63.816 30.336ZM70.228 34.508C69.4627 34.508 68.7347 34.424 68.044 34.256C67.372 34.088 66.7 33.8173 66.028 33.444C65.3747 33.0707 64.684 32.5667 63.956 31.932C63.2467 31.2973 62.472 30.5133 61.632 29.58L66.392 28.376C66.896 29.0667 67.3627 29.6173 67.792 30.028C68.2213 30.4387 68.632 30.728 69.024 30.896C69.4347 31.064 69.864 31.148 70.312 31.148C71.5067 31.148 72.5707 30.6627 73.504 29.692L75.52 32.1C74.1947 33.7053 72.4307 34.508 70.228 34.508ZM63.816 26.472C64.6933 26.472 65.496 26.3227 66.224 26.024C66.9707 25.7253 67.624 25.296 68.184 24.736C68.744 24.176 69.1733 23.5133 69.472 22.748C69.7893 21.964 69.948 21.1147 69.948 20.2C69.948 19.2667 69.7893 18.4173 69.472 17.652C69.1733 16.8867 68.744 16.224 68.184 15.664C67.624 15.104 66.9707 14.6747 66.224 14.376C65.496 14.0773 64.6933 13.928 63.816 13.928C62.9387 13.928 62.1267 14.0773 61.38 14.376C60.6333 14.6747 59.98 15.104 59.42 15.664C58.8787 16.224 58.4493 16.8867 58.132 17.652C57.8333 18.4173 57.684 19.2667 57.684 20.2C57.684 21.1147 57.8333 21.964 58.132 22.748C58.4493 23.5133 58.8787 24.176 59.42 24.736C59.98 25.296 60.6333 25.7253 61.38 26.024C62.1267 26.3227 62.9387 26.472 63.816 26.472ZM83.997 30.224C82.7463 30.224 81.6263 29.9813 80.637 29.496C79.6663 29.0107 78.9103 28.2733 78.369 27.284C77.8277 26.276 77.557 24.9973 77.557 23.448V14.936H81.925V22.804C81.925 24.0547 82.1863 24.9787 82.709 25.576C83.2503 26.1547 84.0063 26.444 84.977 26.444C85.649 26.444 86.2463 26.304 86.769 26.024C87.2917 25.7253 87.7023 25.2773 88.001 24.68C88.2997 24.064 88.449 23.2987 88.449 22.384V14.936H92.817V30H88.673V25.856L89.429 27.06C88.925 28.1053 88.1783 28.8987 87.189 29.44C86.2183 29.9627 85.1543 30.224 83.997 30.224ZM106.104 30V27.06L105.824 26.416V21.152C105.824 20.2187 105.534 19.4907 104.956 18.968C104.396 18.4453 103.528 18.184 102.352 18.184C101.549 18.184 100.756 18.3147 99.9717 18.576C99.2063 18.8187 98.553 19.1547 98.0117 19.584L96.4437 16.532C97.265 15.9533 98.2543 15.5053 99.4117 15.188C100.569 14.8707 101.745 14.712 102.94 14.712C105.236 14.712 107.018 15.2533 108.288 16.336C109.557 17.4187 110.192 19.108 110.192 21.404V30H106.104ZM101.512 30.224C100.336 30.224 99.3277 30.028 98.4877 29.636C97.6477 29.2253 97.0037 28.6747 96.5557 27.984C96.1077 27.2933 95.8837 26.5187 95.8837 25.66C95.8837 24.764 96.0983 23.98 96.5277 23.308C96.9757 22.636 97.6757 22.1133 98.6277 21.74C99.5797 21.348 100.821 21.152 102.352 21.152H106.356V23.7H102.828C101.801 23.7 101.092 23.868 100.7 24.204C100.326 24.54 100.14 24.96 100.14 25.464C100.14 26.024 100.354 26.472 100.784 26.808C101.232 27.1253 101.838 27.284 102.604 27.284C103.332 27.284 103.985 27.116 104.564 26.78C105.142 26.4253 105.562 25.912 105.824 25.24L106.496 27.256C106.178 28.2267 105.6 28.964 104.76 29.468C103.92 29.972 102.837 30.224 101.512 30.224ZM123.301 14.712C124.496 14.712 125.56 14.9547 126.493 15.44C127.445 15.9067 128.192 16.6347 128.733 17.624C129.274 18.5947 129.545 19.8453 129.545 21.376V30H125.177V22.048C125.177 20.8347 124.906 19.9387 124.365 19.36C123.842 18.7813 123.096 18.492 122.125 18.492C121.434 18.492 120.809 18.6413 120.249 18.94C119.708 19.22 119.278 19.6587 118.961 20.256C118.662 20.8533 118.513 21.6187 118.513 22.552V30H114.145V14.936H118.317V19.108L117.533 17.848C118.074 16.84 118.849 16.0653 119.857 15.524C120.865 14.9827 122.013 14.712 123.301 14.712Z" fill="#0D0D0F"/>
<path d="M137.872 30V14.096H131.6V10.4H148.68V14.096H142.408V30H137.872ZM156.758 30.224C155.04 30.224 153.528 29.888 152.222 29.216C150.934 28.544 149.935 27.6293 149.226 26.472C148.516 25.296 148.162 23.9613 148.162 22.468C148.162 20.956 148.507 19.6213 149.198 18.464C149.907 17.288 150.868 16.3733 152.082 15.72C153.295 15.048 154.667 14.712 156.198 14.712C157.672 14.712 158.998 15.0293 160.174 15.664C161.368 16.28 162.311 17.176 163.002 18.352C163.692 19.5093 164.038 20.9 164.038 22.524C164.038 22.692 164.028 22.888 164.01 23.112C163.991 23.3173 163.972 23.5133 163.954 23.7H151.718V21.152H161.658L159.978 21.908C159.978 21.124 159.819 20.4427 159.502 19.864C159.184 19.2853 158.746 18.8373 158.186 18.52C157.626 18.184 156.972 18.016 156.226 18.016C155.479 18.016 154.816 18.184 154.238 18.52C153.678 18.8373 153.239 19.2947 152.922 19.892C152.604 20.4707 152.446 21.1613 152.446 21.964V22.636C152.446 23.4573 152.623 24.1853 152.978 24.82C153.351 25.436 153.864 25.912 154.518 26.248C155.19 26.5653 155.974 26.724 156.87 26.724C157.672 26.724 158.372 26.6027 158.97 26.36C159.586 26.1173 160.146 25.7533 160.65 25.268L162.974 27.788C162.283 28.572 161.415 29.1787 160.37 29.608C159.324 30.0187 158.12 30.224 156.758 30.224ZM174.226 30.224C172.602 30.224 171.155 29.8973 169.886 29.244C168.616 28.572 167.618 27.648 166.89 26.472C166.18 25.296 165.826 23.9613 165.826 22.468C165.826 20.956 166.18 19.6213 166.89 18.464C167.618 17.288 168.616 16.3733 169.886 15.72C171.155 15.048 172.602 14.712 174.226 14.712C175.812 14.712 177.194 15.048 178.37 15.72C179.546 16.3733 180.414 17.316 180.974 18.548L177.586 20.368C177.194 19.6587 176.699 19.136 176.102 18.8C175.523 18.464 174.888 18.296 174.198 18.296C173.451 18.296 172.779 18.464 172.182 18.8C171.584 19.136 171.108 19.612 170.754 20.228C170.418 20.844 170.25 21.5907 170.25 22.468C170.25 23.3453 170.418 24.092 170.754 24.708C171.108 25.324 171.584 25.8 172.182 26.136C172.779 26.472 173.451 26.64 174.198 26.64C174.888 26.64 175.523 26.4813 176.102 26.164C176.699 25.828 177.194 25.296 177.586 24.568L180.974 26.416C180.414 27.6293 179.546 28.572 178.37 29.244C177.194 29.8973 175.812 30.224 174.226 30.224ZM192.563 14.712C193.757 14.712 194.821 14.9547 195.755 15.44C196.707 15.9067 197.453 16.6347 197.995 17.624C198.536 18.5947 198.807 19.8453 198.807 21.376V30H194.439V22.048C194.439 20.8347 194.168 19.9387 193.627 19.36C193.104 18.7813 192.357 18.492 191.387 18.492C190.696 18.492 190.071 18.6413 189.511 18.94C188.969 19.22 188.54 19.6587 188.223 20.256C187.924 20.8533 187.775 21.6187 187.775 22.552V30H183.407V9.224H187.775V19.108L186.795 17.848C187.336 16.84 188.111 16.0653 189.119 15.524C190.127 14.9827 191.275 14.712 192.563 14.712Z" fill="#256AD7"/>
<defs>
<linearGradient id="paint0_linear_233_81" x1="29.9129" y1="32.0623" x2="37.0951" y2="39.0568" gradientUnits="userSpaceOnUse">
<stop offset="0.25" stop-color="#5F2DEE"/>
<stop offset="1" stop-color="#D6FA52"/>
</linearGradient>
<linearGradient id="paint1_linear_233_81" x1="0.672713" y1="3.3672" x2="7.85497" y2="10.3622" gradientUnits="userSpaceOnUse">
<stop offset="0.25" stop-color="#5F2DEE"/>
<stop offset="1" stop-color="#D6FA52"/>
</linearGradient>
<linearGradient id="paint2_linear_233_81" x1="29.6724" y1="3.20733" x2="36.8568" y2="10.1992" gradientUnits="userSpaceOnUse">
<stop offset="0.25" stop-color="#5F2DEE"/>
<stop offset="1" stop-color="#D6FA52"/>
</linearGradient>
<linearGradient id="paint3_linear_233_81" x1="1.71425" y1="21.8189" x2="18.5177" y2="38.1818" gradientUnits="userSpaceOnUse">
<stop offset="0.25" stop-color="#5F2DEE"/>
<stop offset="1" stop-color="#D6FA52"/>
</linearGradient>
<linearGradient id="paint4_linear_233_81" x1="16.245" y1="21.8189" x2="33.0484" y2="38.1769" gradientUnits="userSpaceOnUse">
<stop offset="0.25" stop-color="#5F2DEE"/>
<stop offset="1" stop-color="#D6FA52"/>
</linearGradient>
<linearGradient id="paint5_linear_233_81" x1="1.71781" y1="7.29232" x2="18.5189" y2="23.6516" gradientUnits="userSpaceOnUse">
<stop offset="0.25" stop-color="#5F2DEE"/>
<stop offset="1" stop-color="#D6FA52"/>
</linearGradient>
<clipPath id="clip0_233_81">
<rect width="40" height="39.7091" fill="white"/>
</clipPath>
</defs>
</svg>
